<svg width="25" height="25" viewBox="0 0 25 25" fill="none" xmlns="http://www.w3.org/2000/svg">
<path d="M23.75 12.5C23.75 13.46 22.5706 14.2512 22.3344 15.1362C22.0906 16.0512 22.7075 17.3263 22.2444 18.1269C21.7738 18.9406 20.3581 19.0381 19.6981 19.6981C19.0381 20.3581 18.9406 21.7738 18.1269 22.2444C17.3263 22.7075 16.0512 22.0906 15.1362 22.3344C14.2512 22.5706 13.46 23.75 12.5 23.75C11.54 23.75 10.7487 22.5706 9.86375 22.3344C8.94875 22.0906 7.67375 22.7075 6.87313 22.2444C6.05938 21.7738 5.96187 20.3581 5.30188 19.6981C4.64188 19.0381 3.22625 18.9406 2.75563 18.1269C2.2925 17.3263 2.90938 16.0512 2.66563 15.1362C2.42938 14.2512 1.25 13.46 1.25 12.5C1.25 11.54 2.42938 10.7487 2.66563 9.86375C2.90938 8.94875 2.2925 7.67375 2.75563 6.87313C3.22625 6.05938 4.64188 5.96187 5.30188 5.30188C5.96187 4.64188 6.05938 3.22625 6.87313 2.75563C7.67375 2.2925 8.94875 2.90938 9.86375 2.66563C10.7487 2.42938 11.54 1.25 12.5 1.25C13.46 1.25 14.2512 2.42938 15.1362 2.66563C16.0512 2.90938 17.3263 2.2925 18.1269 2.75563C18.9406 3.22625 19.0381 4.64188 19.6981 5.30188C20.3581 5.96187 21.7738 6.05938 22.2444 6.87313C22.7075 7.67375 22.0906 8.94875 22.3344 9.86375C22.5706 10.7487 23.75 11.54 23.75 12.5Z" fill="#4381C5"/>
<path d="M15.7511 9.14749L11.4686 13.43L9.24861 11.2119C9.01709 10.9805 8.70314 10.8505 8.3758 10.8505C8.04846 10.8505 7.73452 10.9805 7.50299 11.2119C7.27159 11.4434 7.1416 11.7573 7.1416 12.0847C7.1416 12.412 7.27159 12.726 7.50299 12.9575L10.6174 16.0719C10.8427 16.297 11.1482 16.4234 11.4667 16.4234C11.7853 16.4234 12.0908 16.297 12.3161 16.0719L17.4949 10.8931C17.7263 10.6616 17.8563 10.3476 17.8563 10.0203C17.8563 9.69296 17.7263 9.37901 17.4949 9.14749C17.3804 9.03292 17.2445 8.94204 17.0949 8.88003C16.9453 8.81802 16.7849 8.7861 16.623 8.7861C16.461 8.7861 16.3007 8.81802 16.1511 8.88003C16.0015 8.94204 15.8656 9.03292 15.7511 9.14749Z" fill="#FFFCEE"/>
</svg>
