<svg width="65" height="64" viewBox="0 0 65 64" fill="none" xmlns="http://www.w3.org/2000/svg">
<g clip-path="url(#clip0_2434_828)">
<path d="M21.0999 27.3698C21.2488 27.5748 21.4699 27.7157 21.7187 27.764C21.9674 27.8122 22.2252 27.7643 22.4399 27.6298C22.6477 27.4807 22.7904 27.2576 22.8387 27.0065C22.8871 26.7555 22.8374 26.4954 22.6999 26.2798C22.303 25.673 21.7895 25.151 21.1894 24.7441C20.5892 24.3372 19.9143 24.0534 19.2036 23.9092C18.493 23.765 17.7608 23.7633 17.0496 23.9042C16.3383 24.045 15.662 24.3257 15.0599 24.7298C14.9113 24.8953 14.8221 25.1056 14.8065 25.3276C14.7908 25.5495 14.8496 25.7702 14.9735 25.955C15.0975 26.1397 15.2794 26.2779 15.4907 26.3476C15.702 26.4172 15.9304 26.4145 16.1399 26.3398C16.5327 26.0802 16.973 25.9008 17.4354 25.812C17.8979 25.7233 18.3733 25.7269 18.8343 25.8226C19.2953 25.9183 19.7328 26.1043 20.1217 26.3699C20.5105 26.6354 20.843 26.9752 21.0999 27.3698ZM16.9099 41.5498C16.4489 41.4546 16.0113 41.2692 15.6222 41.0043C15.2332 40.7394 14.9003 40.4001 14.6429 40.006C14.3854 39.612 14.2085 39.1709 14.1222 38.7081C14.0358 38.2454 14.0419 37.7702 14.1399 37.3098C14.1122 37.0966 14.0165 36.8981 13.867 36.7437C13.7175 36.5892 13.5223 36.487 13.3102 36.4522C13.0981 36.4174 12.8804 36.4519 12.6894 36.5505C12.4985 36.6491 12.3443 36.8067 12.2499 36.9998C12.1014 37.7099 12.0953 38.4425 12.232 39.155C12.3688 39.8675 12.6457 40.5458 13.0466 41.1505C13.4475 41.7551 13.9646 42.2742 14.5677 42.6775C15.1708 43.0807 15.848 43.3603 16.5599 43.4998H16.7499C16.9656 43.4617 17.1628 43.3538 17.3112 43.1928C17.4597 43.0317 17.5511 42.8264 17.5716 42.6084C17.592 42.3903 17.5403 42.1716 17.4244 41.9858C17.3085 41.7999 17.1348 41.6573 16.9299 41.5798L16.9099 41.5498ZM22.2499 37.3998C22.2669 37.2473 22.2486 37.093 22.1965 36.9488C22.1443 36.8046 22.0596 36.6743 21.9491 36.568C21.8385 36.4617 21.7049 36.3823 21.5587 36.3359C21.4125 36.2894 21.2576 36.2773 21.106 36.3003C20.9543 36.3233 20.81 36.3809 20.6842 36.4686C20.5584 36.5564 20.4544 36.6718 20.3804 36.8062C20.3063 36.9405 20.2642 37.09 20.2571 37.2433C20.2501 37.3965 20.2785 37.5493 20.3399 37.6898C20.5115 39.0032 21.1531 40.2101 22.1458 41.087C23.1386 41.9639 24.4154 42.4516 25.7399 42.4598C26.0075 42.4631 26.2749 42.4464 26.5399 42.4098C26.7911 42.3656 27.0159 42.2271 27.1683 42.0226C27.3208 41.8181 27.3893 41.5631 27.3599 41.3098C27.3157 41.0586 27.1772 40.8338 26.9727 40.6814C26.7683 40.529 26.5133 40.4604 26.2599 40.4898C25.3184 40.6117 24.3671 40.3546 23.6151 39.7752C22.8631 39.1957 22.372 38.3413 22.2499 37.3998Z" fill="#1A1919"/>
<path d="M60.6 38.93C59.8025 38.9319 59.0275 39.195 58.3937 39.679C57.7598 40.1629 57.3019 40.8412 57.09 41.61H53.74L48.66 35.78C48.5676 35.6777 48.4551 35.5955 48.3295 35.5387C48.2038 35.4819 48.0678 35.4517 47.93 35.45H34.4V28.58H47.93C48.0678 28.5783 48.2038 28.5481 48.3295 28.4913C48.4551 28.4345 48.5676 28.3524 48.66 28.25L53.74 22.42H57.09C57.3248 23.2743 57.8614 24.0143 58.6004 24.503C59.3394 24.9916 60.2305 25.1956 61.1085 25.0772C61.9865 24.9587 62.7917 24.5258 63.3747 23.8588C63.9578 23.1918 64.2791 22.3359 64.2791 21.45C64.2791 20.5641 63.9578 19.7083 63.3747 19.0412C62.7917 18.3742 61.9865 17.9413 61.1085 17.8229C60.2305 17.7044 59.3394 17.9084 58.6004 18.3971C57.8614 18.8857 57.3248 19.6258 57.09 20.48H53.3C53.1621 20.4817 53.0261 20.5119 52.9005 20.5687C52.7749 20.6255 52.6623 20.7077 52.57 20.81L47.49 26.64H34.4V23H47.08C47.2192 23.001 47.357 22.971 47.4832 22.9122C47.6095 22.8534 47.7211 22.7672 47.81 22.66L51.35 18.5C51.5015 18.3254 51.5834 18.1012 51.58 17.87V14C52.426 13.7654 53.1583 13.2322 53.6413 12.499C54.1243 11.7658 54.3252 10.8825 54.2068 10.0126C54.0884 9.14262 53.6588 8.34508 52.9975 7.76764C52.3361 7.19021 51.4879 6.87202 50.61 6.87202C49.732 6.87202 48.8838 7.19021 48.2225 7.76764C47.5612 8.34508 47.1315 9.14262 47.0131 10.0126C46.8947 10.8825 47.0956 11.7658 47.5786 12.499C48.0616 13.2322 48.7939 13.7654 49.64 14V17.54L46.64 21.06H34.4V16.42H38.83C38.9903 16.4209 39.1485 16.3832 39.2912 16.3101C39.4339 16.237 39.557 16.1306 39.65 16L40.89 14C41.2145 14.0983 41.5509 14.1522 41.89 14.16C42.6134 14.164 43.3218 13.9534 43.9256 13.555C44.5295 13.1565 45.0017 12.5881 45.2826 11.9214C45.5635 11.2547 45.6406 10.5197 45.5041 9.8093C45.3675 9.09886 45.0235 8.44481 44.5155 7.92978C44.0074 7.41475 43.3581 7.06183 42.6496 6.91561C41.9411 6.76939 41.2051 6.83643 40.5347 7.10825C39.8642 7.38007 39.2894 7.84448 38.8828 8.44282C38.4761 9.04117 38.2559 9.7466 38.25 10.47C38.2541 11.3912 38.6121 12.2755 39.25 12.94L38.25 14.48H34.4V6.99002C34.4097 6.92036 34.4097 6.84969 34.4 6.78002C33.8223 5.1216 32.7404 3.68531 31.306 2.6722C29.8715 1.6591 28.1561 1.11988 26.4 1.13002C24.7745 1.14197 23.1865 1.6192 21.8237 2.50527C20.4609 3.39135 19.3804 4.64919 18.71 6.13002C17.4486 5.73662 16.1125 5.64521 14.8093 5.86318C13.5061 6.08114 12.2725 6.60238 11.2078 7.38482C10.1431 8.16727 9.27726 9.18902 8.6801 10.3676C8.08293 11.5463 7.77117 12.8488 7.76997 14.17C7.76518 14.9448 7.87297 15.7162 8.08997 16.46C6.90058 16.8413 5.81024 17.4809 4.89705 18.3331C3.98387 19.1852 3.27044 20.2288 2.80789 21.389C2.34534 22.5492 2.1451 23.7973 2.22153 25.044C2.29796 26.2907 2.64916 27.505 3.24997 28.6C2.18497 29.4278 1.35645 30.5212 0.847559 31.7704C0.338668 33.0196 0.167315 34.3807 0.350697 35.7171C0.534079 37.0534 1.06575 38.318 1.89233 39.384C2.71892 40.4499 3.81135 41.2797 5.05997 41.79C4.29557 42.9997 3.85088 44.3837 3.7676 45.8122C3.68432 47.2407 3.96518 48.667 4.58384 49.9573C5.20251 51.2476 6.13871 52.3596 7.30467 53.1892C8.47063 54.0187 9.82816 54.5386 11.25 54.7C11.3002 55.9899 11.6744 57.2463 12.3379 58.3535C13.0015 59.4608 13.9331 60.3832 15.0468 61.0357C16.1606 61.6882 17.4207 62.0499 18.711 62.0873C20.0013 62.1248 21.2802 61.8368 22.43 61.25C23.7807 62.3045 25.4464 62.875 27.16 62.87C28.717 62.8627 30.2357 62.3865 31.5182 61.5036C32.8007 60.6206 33.7874 59.3719 34.35 57.92C34.3588 57.8436 34.3588 57.7664 34.35 57.69C34.3548 57.6502 34.3548 57.6099 34.35 57.57V49.57H38.25L39.25 51.11C38.6121 51.7746 38.2541 52.6589 38.25 53.58C38.248 54.3043 38.461 55.0129 38.8619 55.6161C39.2629 56.2193 39.8338 56.69 40.5024 56.9685C41.171 57.2471 41.9072 57.321 42.6179 57.1809C43.3285 57.0408 43.9816 56.693 44.4944 56.1816C45.0073 55.6701 45.3569 55.018 45.4989 54.3077C45.6409 53.5975 45.569 52.8611 45.2923 52.1917C45.0156 51.5224 44.5465 50.9502 43.9444 50.5475C43.3423 50.1449 42.6343 49.93 41.91 49.93C41.5709 49.9379 41.2345 49.9917 40.91 50.09L39.65 48C39.5615 47.862 39.4404 47.7479 39.2974 47.6676C39.1544 47.5874 38.9939 47.5436 38.83 47.54H34.4V43H46.63L49.63 46.52V50C48.7703 50.2349 48.025 50.7739 47.5326 51.5167C47.0402 52.2596 46.8341 53.1559 46.9527 54.0392C47.0712 54.9225 47.5062 55.7328 48.177 56.3196C48.8478 56.9064 49.7087 57.2299 50.6 57.2299C51.4912 57.2299 52.3522 56.9064 53.0229 56.3196C53.6937 55.7328 54.1288 54.9225 54.2473 54.0392C54.3658 53.1559 54.1597 52.2596 53.6673 51.5167C53.1749 50.7739 52.4297 50.2349 51.57 50V46.1C51.5734 45.8689 51.4915 45.6446 51.34 45.47L47.8 41.33C47.7111 41.2228 47.5995 41.1367 47.4732 41.0779C47.347 41.0191 47.2092 40.9891 47.07 40.99H34.4V37.39H47.49L52.57 43.22C52.6623 43.3224 52.7749 43.4045 52.9005 43.4613C53.0261 43.5181 53.1621 43.5483 53.3 43.55H57.09C57.2708 44.2061 57.6315 44.7985 58.1312 45.2604C58.631 45.7223 59.2499 46.0353 59.9181 46.1641C60.5863 46.2928 61.2772 46.2322 61.9128 45.9891C62.5484 45.7459 63.1034 45.33 63.5151 44.7881C63.9268 44.2462 64.1787 43.6001 64.2426 42.9225C64.3065 42.245 64.1797 41.5632 63.8765 40.9539C63.5733 40.3447 63.1058 39.8323 62.5269 39.4747C61.9479 39.117 61.2805 38.9284 60.6 38.93ZM60.6 19.7C60.9402 19.7 61.2727 19.8009 61.5556 19.9899C61.8384 20.1789 62.0589 20.4475 62.189 20.7618C62.3192 21.0761 62.3533 21.4219 62.2869 21.7556C62.2206 22.0892 62.0567 22.3957 61.8162 22.6362C61.5756 22.8768 61.2692 23.0406 60.9355 23.107C60.6019 23.1733 60.256 23.1393 59.9418 23.0091C59.6275 22.8789 59.3588 22.6585 59.1698 22.3756C58.9809 22.0928 58.88 21.7602 58.88 21.42C58.88 20.9639 59.0612 20.5264 59.3838 20.2038C59.7063 19.8812 60.1438 19.7 60.6 19.7ZM48.9 10.47C48.898 10.129 48.9974 9.79508 49.1857 9.5107C49.3739 9.22632 49.6424 9.00431 49.9571 8.87289C50.2718 8.74147 50.6185 8.70657 50.9531 8.77262C51.2876 8.83866 51.595 9.00268 51.8362 9.24383C52.0773 9.48497 52.2413 9.79237 52.3074 10.1269C52.3734 10.4615 52.3385 10.8082 52.2071 11.1229C52.0757 11.4376 51.8537 11.7061 51.5693 11.8943C51.2849 12.0826 50.951 12.182 50.61 12.18C50.1573 12.1774 49.7238 11.9964 49.4037 11.6763C49.0836 11.3562 48.9026 10.9227 48.9 10.47ZM41.9 8.75002C42.2402 8.75002 42.5727 8.8509 42.8556 9.0399C43.1384 9.22889 43.3589 9.49752 43.489 9.81181C43.6192 10.1261 43.6533 10.4719 43.5869 10.8056C43.5206 11.1392 43.3567 11.4457 43.1162 11.6862C42.8756 11.9268 42.5692 12.0906 42.2355 12.157C41.9019 12.2233 41.556 12.1893 41.2418 12.0591C40.9275 11.9289 40.6588 11.7085 40.4698 11.4256C40.2808 11.1428 40.18 10.8102 40.18 10.47C40.18 10.2433 40.2248 10.0188 40.3119 9.80949C40.3989 9.60015 40.5265 9.4101 40.6873 9.25025C40.8481 9.0904 41.0389 8.96392 41.2487 8.87807C41.4585 8.79222 41.6833 8.74871 41.91 8.75002H41.9ZM32.45 15.45V20C31.5941 19.5755 30.6414 19.3843 29.688 19.4458C28.7346 19.5072 27.8143 19.8192 27.02 20.35C26.8123 20.4991 26.6695 20.7222 26.6212 20.9733C26.5728 21.2243 26.6225 21.4844 26.76 21.7C26.9088 21.9051 27.13 22.0459 27.3787 22.0942C27.6275 22.1425 27.8852 22.0945 28.1 21.96C28.7583 21.5138 29.5502 21.3079 30.3425 21.3772C31.1348 21.4464 31.879 21.7864 32.45 22.34V31.56C31.5952 31.1298 30.6408 30.9363 29.6859 30.9997C28.731 31.063 27.8105 31.3808 27.02 31.92C26.8688 32.0859 26.7778 32.2978 26.7617 32.5217C26.7455 32.7456 26.8052 32.9684 26.931 33.1542C27.0568 33.3401 27.2415 33.4782 27.4554 33.5464C27.6692 33.6145 27.8998 33.6088 28.11 33.53C28.7639 33.0801 29.5532 32.8702 30.3442 32.9358C31.1352 33.0014 31.8791 33.3385 32.45 33.89V57.34C32.1366 58.1148 31.6579 58.8118 31.0472 59.3823C30.4365 59.9528 29.7086 60.3831 28.9144 60.6431C28.1201 60.9031 27.2787 60.9865 26.4488 60.8875C25.619 60.7885 24.8208 60.5095 24.11 60.07C24.9987 59.2775 25.6016 58.2145 25.8258 57.045C26.0499 55.8756 25.8827 54.6649 25.35 53.6C25.3195 53.4497 25.2549 53.3084 25.1612 53.187C25.0674 53.0657 24.947 52.9675 24.8092 52.9001C24.6714 52.8328 24.52 52.798 24.3666 52.7985C24.2133 52.799 24.0621 52.8347 23.9247 52.903C23.7874 52.9713 23.6676 53.0702 23.5746 53.1922C23.4816 53.3141 23.4179 53.4559 23.3885 53.6064C23.359 53.7569 23.3646 53.9122 23.4047 54.0602C23.4449 54.2082 23.5185 54.345 23.62 54.46C23.8247 54.8838 23.9434 55.3439 23.9691 55.8138C23.9949 56.2837 23.9273 56.754 23.7701 57.1976C23.6129 57.6412 23.3694 58.0492 23.0535 58.3981C22.7377 58.7469 22.3558 59.0297 21.93 59.23C21.8538 59.2786 21.7833 59.3356 21.72 59.4C20.8581 59.8899 19.8838 60.1478 18.8924 60.1485C17.901 60.1492 16.9264 59.8926 16.0638 59.4039C15.2012 58.9152 14.4802 58.211 13.9712 57.3602C13.4623 56.5095 13.1827 55.5412 13.16 54.55C14.86 54.06 18.07 52.83 18.54 50.41C18.5819 50.1576 18.5254 49.8987 18.3821 49.6866C18.2389 49.4745 18.0198 49.3254 17.77 49.27C17.5261 49.232 17.2768 49.2856 17.0701 49.4204C16.8633 49.5551 16.7137 49.7616 16.65 50C16.36 51.44 13.34 52.51 12.14 52.77C10.8909 52.7529 9.6733 52.3762 8.63278 51.685C7.59227 50.9938 6.77294 50.0175 6.27287 48.8728C5.77279 47.7281 5.61315 46.4636 5.81304 45.2305C6.01293 43.9974 6.56388 42.8481 7.39997 41.92C7.52166 41.7876 7.60538 41.6249 7.64234 41.4489C7.6793 41.2729 7.66812 41.0902 7.60997 40.92C7.55178 40.7589 7.45317 40.6154 7.32359 40.5033C7.19401 40.3913 7.03781 40.3144 6.86997 40.28C5.72821 40.0561 4.68125 39.491 3.8674 38.6595C3.05356 37.8279 2.51113 36.7691 2.31177 35.6228C2.11241 34.4764 2.2655 33.2966 2.75082 32.2391C3.23614 31.1817 4.03086 30.2963 5.02997 29.7C5.41977 29.4379 5.8577 29.2558 6.3184 29.1642C6.7791 29.0725 7.25339 29.0733 7.71381 29.1663C8.17423 29.2593 8.61161 29.4428 9.00061 29.706C9.38961 29.9693 9.72249 30.3072 9.97997 30.7C10.071 30.8279 10.1909 30.9326 10.3298 31.0055C10.4688 31.0785 10.623 31.1177 10.78 31.12C10.976 31.1185 11.1673 31.0594 11.33 30.95C11.5361 30.7994 11.6768 30.5757 11.7233 30.3247C11.7697 30.0737 11.7185 29.8144 11.58 29.6C10.8676 28.5285 9.80147 27.7412 8.56775 27.3757C7.33403 27.0101 6.01111 27.0895 4.82997 27.6C4.37016 26.7426 4.10963 25.7926 4.06777 24.8205C4.02592 23.8485 4.20381 22.8796 4.58822 21.9858C4.97263 21.0921 5.55366 20.2965 6.28806 19.6584C7.02246 19.0202 7.89132 18.5559 8.82997 18.3C9.21091 18.9281 9.74638 19.4481 10.3853 19.8105C11.0243 20.1728 11.7454 20.3655 12.48 20.37C12.9816 20.3723 13.4795 20.2842 13.95 20.11C14.102 20.0957 14.2487 20.0467 14.3789 19.9668C14.509 19.887 14.6192 19.7784 14.7009 19.6493C14.7825 19.5203 14.8336 19.3743 14.8501 19.2225C14.8666 19.0707 14.8481 18.9171 14.796 18.7735C14.744 18.63 14.6597 18.5003 14.5498 18.3943C14.4398 18.2884 14.307 18.209 14.1616 18.1623C14.0162 18.1156 13.8621 18.1029 13.711 18.125C13.5599 18.1472 13.4159 18.2036 13.29 18.29C12.701 18.4922 12.0561 18.4546 11.4947 18.1851C10.9334 17.9156 10.5006 17.436 10.29 16.85C10.2937 16.8201 10.2937 16.7899 10.29 16.76C9.77145 15.5572 9.62899 14.2257 9.88131 12.9405C10.1336 11.6552 10.7689 10.4764 11.7037 9.55892C12.6385 8.64146 13.829 8.0283 15.1187 7.80004C16.4085 7.57178 17.7371 7.73911 18.93 8.28002H19.13C21.9 8.82002 22.72 11.36 22.29 13.63C22.2509 13.8809 22.3087 14.1373 22.4517 14.3472C22.5947 14.5571 22.8121 14.7046 23.06 14.76H23.24C23.4725 14.7652 23.6996 14.6891 23.8821 14.545C24.0646 14.4008 24.1912 14.1975 24.24 13.97C24.87 10.59 23.42 7.75002 20.66 6.68002C21.1954 5.58829 22.0246 4.66746 23.0545 4.02093C24.0843 3.37441 25.274 3.02779 26.49 3.02002C27.812 3.01782 29.1028 3.42126 30.1883 4.1759C31.2738 4.93054 32.1016 6.00003 32.56 7.24002L32.45 15.45ZM41.9 51.82C42.2406 51.82 42.5735 51.9212 42.8566 52.1106C43.1397 52.3 43.3601 52.5693 43.49 52.8841C43.6199 53.199 43.6533 53.5454 43.5862 53.8793C43.519 54.2132 43.3542 54.5196 43.1126 54.7598C42.8711 54.9999 42.5637 55.163 42.2294 55.2282C41.8951 55.2934 41.5489 55.2579 41.2348 55.1262C40.9207 54.9945 40.6528 54.7725 40.465 54.4883C40.2772 54.2041 40.178 53.8706 40.18 53.53C40.1813 53.3041 40.2271 53.0807 40.3147 52.8726C40.4024 52.6644 40.5302 52.4755 40.6908 52.3167C40.8515 52.1579 41.0418 52.0323 41.251 51.9471C41.4602 51.8619 41.6841 51.8187 41.91 51.82H41.9ZM52.32 53.53C52.322 53.8706 52.2228 54.2041 52.035 54.4883C51.8472 54.7725 51.5793 54.9945 51.2651 55.1262C50.951 55.2579 50.6049 55.2934 50.2706 55.2282C49.9363 55.163 49.6289 54.9999 49.3873 54.7598C49.1458 54.5196 48.981 54.2132 48.9138 53.8793C48.8466 53.5454 48.8801 53.199 49.01 52.8841C49.1399 52.5693 49.3603 52.3 49.6434 52.1106C49.9264 51.9212 50.2594 51.82 50.6 51.82C50.8258 51.8187 51.0498 51.8619 51.259 51.9471C51.4681 52.0323 51.6585 52.1579 51.8191 52.3167C51.9798 52.4755 52.1076 52.6644 52.1952 52.8726C52.2829 53.0807 52.3287 53.3041 52.33 53.53H52.32ZM60.59 44.3C60.2494 44.302 59.9158 44.2028 59.6317 44.015C59.3475 43.8272 59.1255 43.5593 58.9938 43.2452C58.8621 42.9311 58.8266 42.5849 58.8918 42.2506C58.957 41.9163 59.1201 41.6089 59.3602 41.3674C59.6004 41.1258 59.9068 40.961 60.2407 40.8938C60.5746 40.8267 60.921 40.8601 61.2359 40.99C61.5507 41.1199 61.82 41.3403 62.0094 41.6234C62.1988 41.9065 62.3 42.2394 62.3 42.58C62.3 43.0328 62.1215 43.4672 61.8033 43.7892C61.485 44.1112 61.0527 44.2948 60.6 44.3H60.59Z" fill="#1A1919"/>
</g>
<defs>
<clipPath id="clip0_2434_828">
<rect width="64" height="64" fill="white" transform="translate(0.25)"/>
</clipPath>
</defs>
</svg>
