<svg width="65" height="64" viewBox="0 0 65 64" fill="none" xmlns="http://www.w3.org/2000/svg">
<path d="M5.77724 31.3212C5.38936 31.7091 5.38936 32.2909 5.77724 32.6788C6.16512 33.0667 6.74693 33.0667 7.13481 32.6788C7.52269 32.2909 7.52269 31.7091 7.13481 31.3212C6.74693 30.9333 6.16512 30.9333 5.77724 31.3212ZM9.26815 31.3212C8.88027 31.7091 8.88027 32.2909 9.26815 32.6788C9.65603 33.0667 10.2378 33.0667 10.6257 32.6788C11.0136 32.2909 11.0136 31.7091 10.6257 31.3212C10.3348 30.9333 9.65603 30.9333 9.26815 31.3212ZM19.8378 30.1576C19.256 30.1576 18.8681 30.5454 18.8681 31.1273V32.8727C18.8681 33.4545 19.256 33.8424 19.8378 33.8424C20.4197 33.8424 20.8075 33.4545 20.8075 32.8727V31.1273C20.8075 30.6424 20.4197 30.1576 19.8378 30.1576ZM16.153 30.1576C15.5712 30.1576 15.1833 30.5454 15.1833 31.1273V32.8727C15.1833 33.4545 15.5712 33.8424 16.153 33.8424C16.7348 33.8424 17.1227 33.4545 17.1227 32.8727V31.1273C17.1227 30.6424 16.7348 30.1576 16.153 30.1576ZM5.77724 10.4727C5.38936 10.8606 5.38936 11.4424 5.77724 11.8303C6.16512 12.2182 6.74693 12.2182 7.13481 11.8303C7.52269 11.4424 7.52269 10.8606 7.13481 10.4727C6.74693 10.1818 6.16512 10.1818 5.77724 10.4727ZM9.26815 10.4727C8.88027 10.8606 8.88027 11.4424 9.26815 11.8303C9.65603 12.2182 10.2378 12.2182 10.6257 11.8303C11.0136 11.4424 11.0136 10.8606 10.6257 10.4727C10.3348 10.1818 9.65603 10.1818 9.26815 10.4727ZM19.8378 9.30908C19.256 9.30908 18.8681 9.69696 18.8681 10.2788V12.0242C18.8681 12.6061 19.256 12.9939 19.8378 12.9939C20.4197 12.9939 20.8075 12.6061 20.8075 12.0242V10.2788C20.8075 9.79393 20.4197 9.30908 19.8378 9.30908ZM16.153 9.30908C15.5712 9.30908 15.1833 9.69696 15.1833 10.2788V12.0242C15.1833 12.6061 15.5712 12.9939 16.153 12.9939C16.7348 12.9939 17.1227 12.6061 17.1227 12.0242V10.2788C17.1227 9.79393 16.7348 9.30908 16.153 9.30908ZM5.77724 52.1697C5.38936 52.5576 5.38936 53.1394 5.77724 53.5273C6.16512 53.9151 6.74693 53.9151 7.13481 53.5273C7.52269 53.1394 7.52269 52.5576 7.13481 52.1697C6.74693 51.7818 6.16512 51.7818 5.77724 52.1697ZM9.26815 52.1697C8.88027 52.5576 8.88027 53.1394 9.26815 53.5273C9.65603 53.9151 10.2378 53.9151 10.6257 53.5273C11.0136 53.1394 11.0136 52.5576 10.6257 52.1697C10.3348 51.7818 9.65603 51.7818 9.26815 52.1697ZM19.8378 51.0061C19.256 51.0061 18.8681 51.3939 18.8681 51.9757V53.7212C18.8681 54.303 19.256 54.6909 19.8378 54.6909C20.4197 54.6909 20.8075 54.303 20.8075 53.7212V51.9757C20.8075 51.3939 20.4197 51.0061 19.8378 51.0061ZM16.153 51.0061C15.5712 51.0061 15.1833 51.3939 15.1833 51.9757V53.7212C15.1833 54.303 15.5712 54.6909 16.153 54.6909C16.7348 54.6909 17.1227 54.303 17.1227 53.7212V51.9757C17.1227 51.3939 16.7348 51.0061 16.153 51.0061Z" fill="#1A1919"/>
<path d="M59.9834 22.9818V20.2666C59.9834 15.3212 56.0076 11.3454 51.0622 11.3454C46.1167 11.3454 42.1409 15.3212 42.1409 20.2666V22.9818C40.2015 23.4666 38.844 25.1151 38.844 27.1515V31.0303H35.9349C35.644 29.9636 34.7712 29.0909 33.7046 28.8V14.3515C35.0622 13.9636 36.1288 12.703 36.1288 11.1515C36.1288 9.30906 34.5773 7.75754 32.7349 7.75754C31.1834 7.75754 29.9228 8.72724 29.5349 10.1818H25.2682V6.20603C25.2682 5.62421 24.8803 5.23633 24.2985 5.23633H2.18942C1.60761 5.23633 1.21973 5.62421 1.21973 6.20603V16.1939C1.21973 16.7757 1.60761 17.1636 2.18942 17.1636H24.1046C24.6864 17.1636 25.0743 16.7757 25.0743 16.1939V12.2181H29.3409C29.6318 13.2848 30.5046 14.1575 31.5712 14.4484V28.8969C30.5046 29.1878 29.6318 30.0606 29.3409 31.1272H25.0743V27.1515C25.0743 26.5697 24.6864 26.1818 24.1046 26.1818H2.18942C1.60761 26.1818 1.21973 26.5697 1.21973 27.1515V37.1394C1.21973 37.7212 1.60761 38.1091 2.18942 38.1091H24.1046C24.6864 38.1091 25.0743 37.7212 25.0743 37.1394V32.9697H29.3409C29.6318 34.0363 30.5046 34.9091 31.5712 35.2V49.6484C30.5046 49.9394 29.6318 50.8121 29.3409 51.8787H25.0743V47.903C25.0743 47.3212 24.6864 46.9333 24.1046 46.9333H2.18942C1.60761 46.9333 1.21973 47.3212 1.21973 47.903V57.8909C1.21973 58.4727 1.60761 58.8606 2.18942 58.8606H24.1046C24.6864 58.8606 25.0743 58.4727 25.0743 57.8909V53.9151H29.3409C29.7288 55.2727 30.9894 56.3394 32.5409 56.3394C34.3834 56.3394 35.9349 54.7878 35.9349 52.9454C35.9349 51.3939 34.9652 50.1333 33.5106 49.7454V35.2C34.5773 34.9091 35.45 34.0363 35.7409 32.9697H38.65V41.3091C38.65 43.7333 40.5894 45.6727 43.0137 45.6727H58.9167C61.3409 45.6727 63.2803 43.7333 63.2803 41.3091V27.1515C63.2803 25.1151 61.8258 23.4666 59.9834 22.9818ZM3.15912 15.2242V7.17572H23.1349V15.1272H3.15912V15.2242ZM3.15912 35.9757V27.9272H23.1349V35.9757H3.15912ZM3.15912 56.8242V48.7757H23.1349V56.7272H3.15912V56.8242ZM31.0864 11.1515C31.0864 10.3757 31.7652 9.69693 32.5409 9.69693C33.3167 9.69693 33.9955 10.3757 33.9955 11.1515C33.9955 11.9272 33.3167 12.606 32.5409 12.606C31.7652 12.606 31.0864 11.9272 31.0864 11.1515ZM33.9955 52.8484C33.9955 53.6242 33.3167 54.303 32.5409 54.303C31.7652 54.303 31.0864 53.6242 31.0864 52.8484C31.0864 52.0727 31.7652 51.3939 32.5409 51.3939C33.3167 51.3939 33.9955 52.0727 33.9955 52.8484ZM32.5409 33.4545C31.7652 33.4545 31.0864 32.7757 31.0864 32C31.0864 31.2242 31.7652 30.5454 32.5409 30.5454C33.3167 30.5454 33.9955 31.2242 33.9955 32C33.9955 32.7757 33.3167 33.4545 32.5409 33.4545ZM43.9834 20.2666C43.9834 16.3878 47.0864 13.2848 50.9652 13.2848C54.844 13.2848 57.947 16.3878 57.947 20.2666V22.8848H56.0076V20.2666C56.0076 17.4545 53.6803 15.2242 50.9652 15.2242C48.1531 15.2242 45.9228 17.5515 45.9228 20.2666V22.8848H43.9834V20.2666ZM54.1652 22.8848H47.8622V20.2666C47.8622 18.5212 49.3167 17.1636 50.9652 17.1636C52.7106 17.1636 54.0682 18.6181 54.0682 20.2666V22.8848H54.1652ZM61.3409 41.3091C61.3409 42.6666 60.2743 43.7333 58.9167 43.7333H43.0137C41.6561 43.7333 40.5894 42.6666 40.5894 41.3091V27.1515C40.5894 25.8909 41.6561 24.8242 43.0137 24.8242H58.9167C60.2743 24.8242 61.3409 25.8909 61.3409 27.1515V41.3091Z" fill="#1A1919"/>
<path d="M50.965 29.5757C49.0256 29.5757 47.4741 31.1272 47.4741 33.0666C47.4741 34.6181 48.5408 35.9757 49.9953 36.4605V40.1454C49.9953 40.7272 50.3832 41.1151 50.965 41.1151C51.5468 41.1151 51.9347 40.7272 51.9347 40.1454V36.4605C53.3893 36.0727 54.4559 34.7151 54.4559 33.0666C54.4559 31.1272 52.9044 29.5757 50.965 29.5757ZM50.965 34.6181C50.0923 34.6181 49.4135 33.9393 49.4135 33.0666C49.4135 32.1939 50.0923 31.5151 50.965 31.5151C51.8378 31.5151 52.5165 32.1939 52.5165 33.0666C52.5165 33.9393 51.8378 34.6181 50.965 34.6181Z" fill="#1A1919"/>
</svg>
