<svg width="65" height="64" viewBox="0 0 65 64" fill="none" xmlns="http://www.w3.org/2000/svg">
<path fill-rule="evenodd" clip-rule="evenodd" d="M20.6701 41.0752V41.0624C20.6701 41.0355 20.6701 41.0086 20.6714 40.983C20.6266 38.8352 20.5882 37.449 20.5562 36.3162C20.4947 34.0941 20.4589 32.8166 20.4486 28.6886V28.6605C20.4461 27.8221 20.4461 26.8672 20.4461 25.7626C20.4461 25.1328 20.1491 24.7437 19.7651 24.5824C19.6018 24.5156 19.427 24.4816 19.2506 24.4826C19.0714 24.4838 18.8909 24.5184 18.7257 24.5888C18.32 24.7603 18.0013 25.1674 17.9962 25.8125V25.8458L17.9296 28.6182C17.9309 28.6362 17.9309 28.6541 17.9309 28.672C17.9309 28.704 17.9296 28.736 17.9257 28.768L17.7913 34.4192C17.7926 34.4371 17.7926 34.4538 17.7926 34.4717V38.7814C17.7926 39.2627 17.4022 39.6531 16.921 39.6531C16.4397 39.6531 16.0493 39.2627 16.0493 38.7814V34.5267C15.9686 33.9878 15.6781 33.6538 15.3261 33.5142C15.1545 33.4464 14.9613 33.4195 14.7641 33.4323C14.5696 33.4464 14.3763 33.5014 14.2048 33.5974C13.8131 33.8163 13.5174 34.2707 13.5174 34.9594V39.2691C13.5174 39.7504 13.127 40.1408 12.6457 40.1408C12.1645 40.1408 11.7741 39.7504 11.7741 39.2691V35.2461C11.6371 35.1104 11.4515 35.0144 11.2454 34.9619C11.0657 34.9165 10.8794 34.9031 10.695 34.9222C10.6681 34.9274 10.64 34.9312 10.6118 34.9325C10.5478 34.9427 10.4838 34.9568 10.4198 34.9747C10.1459 35.0515 9.88735 35.2013 9.68511 35.4278C9.40479 35.7414 9.21791 36.2214 9.21791 36.887V41.1968C9.21791 41.6781 8.82751 42.0685 8.34623 42.0685C7.86495 42.0685 7.47455 41.6781 7.47455 41.1968V37.1482C7.36218 37.0178 7.21394 36.9235 7.04831 36.8768C6.99071 36.8602 6.93183 36.8486 6.87167 36.8422L6.81919 36.8384C6.69006 36.8308 6.5606 36.8456 6.43647 36.8819C6.21503 36.9446 6.00255 37.0701 5.82591 37.2608C5.51487 37.5962 5.30239 38.1402 5.30239 38.9184C5.30239 44.6144 5.81823 46.4077 6.55679 48.9715C6.98175 50.4474 7.47839 52.1702 7.99551 54.9798H22.3302C23.0918 53.591 23.7088 52.2202 24.1862 50.9146C24.592 49.8061 24.8954 48.745 25.1014 47.7581C25.1066 47.7158 25.1155 47.6736 25.127 47.6339C25.2269 47.1398 25.3011 46.6637 25.351 46.2118C25.401 45.7587 25.4394 45.0726 25.4662 44.2906C25.465 44.2765 25.465 44.2624 25.465 44.2483C25.465 44.2138 25.4675 44.1805 25.4713 44.1459C25.5008 43.2614 25.5174 42.2784 25.5213 41.367C25.5187 41.3427 25.5187 41.3184 25.5187 41.2941C25.5187 40.4019 25.1117 39.8579 24.5933 39.6339C24.3885 39.5456 24.1658 39.5008 23.943 39.5008C23.719 39.4995 23.495 39.5443 23.2864 39.6314C22.7936 39.8374 22.4096 40.3226 22.4096 41.0752V45.385C22.4096 45.8662 22.0192 46.2566 21.5379 46.2566C21.0566 46.2566 20.6662 45.8662 20.6662 45.385V41.0752H20.6701ZM26.0307 56.9869V61.993C26.0307 62.5459 25.8054 63.0477 25.4419 63.4112C25.0784 63.7747 24.5766 64 24.0237 64H6.98687C6.43391 64 5.93215 63.7747 5.56863 63.4112C5.20511 63.0477 4.97983 62.5459 4.97983 61.993V56.9869C4.97983 56.4339 5.20511 55.9322 5.56863 55.5686C5.76319 55.3741 5.99743 55.2192 6.25727 55.1168C5.76831 52.5056 5.29471 50.8608 4.88767 49.4477C4.10943 46.7443 3.56543 44.8538 3.56543 38.9171C3.56543 37.6614 3.96991 36.7181 4.55871 36.0819C4.96703 35.6403 5.45727 35.3498 5.96671 35.2051L6.05119 35.1821V4.13696C6.05119 2.99776 6.51583 1.96352 7.26591 1.21472C8.01343 0.46464 9.04895 0 10.1869 0H40.3373C41.4765 0 42.5107 0.46464 43.2595 1.21472C44.0096 1.9648 44.4742 2.99904 44.4742 4.13696V10.6048C44.5558 10.5038 44.659 10.4223 44.7761 10.3662C44.8933 10.3102 45.0215 10.2811 45.1514 10.281V10.2784H48.5395C49.0042 10.2784 49.383 10.6419 49.4099 11.0989L49.625 12.7002C50.2431 12.8458 50.8484 13.0414 51.4349 13.2851C52.0237 13.5296 52.5907 13.8202 53.1309 14.1542L54.4672 13.1341C54.6347 13.0063 54.8429 12.9436 55.0531 12.9577C55.2634 12.9718 55.4613 13.0618 55.6102 13.2109L55.6115 13.2096L58.0064 15.6058C58.1626 15.762 58.2535 15.9717 58.2609 16.1925C58.2683 16.4133 58.1915 16.6286 58.0461 16.7949L57.0605 18.0864C57.3946 18.6266 57.6851 19.1936 57.9296 19.7837C58.169 20.3622 58.3661 20.9677 58.5146 21.5949L60.1798 21.8189C60.6163 21.8778 60.9338 22.2515 60.9338 22.6803H60.9363V26.0672C60.9363 26.5318 60.5728 26.9107 60.1158 26.9376L58.5146 27.1526C58.3661 27.7798 58.1702 28.384 57.9309 28.9626C57.6864 29.5514 57.3958 30.1197 57.0618 30.6598L58.0819 31.9962C58.2097 32.1637 58.2724 32.3719 58.2583 32.5821C58.2442 32.7923 58.1542 32.9903 58.0051 33.1392L58.0064 33.1405L55.6115 35.5366C55.4553 35.6928 55.2456 35.7838 55.0248 35.7911C54.804 35.7985 54.5887 35.7217 54.4224 35.5763L53.1309 34.5907C52.5897 34.9253 52.0225 35.216 51.4349 35.4598C50.8477 35.7028 50.242 35.8984 49.6237 36.0448L49.3997 37.7101C49.3714 37.9186 49.2686 38.1099 49.1102 38.2485C48.9519 38.3871 48.7487 38.4636 48.5382 38.464V38.4666H45.1501C45.0203 38.4667 44.8921 38.4378 44.775 38.382C44.6578 38.3261 44.5546 38.2448 44.4729 38.144V44.608C44.4729 45.7459 44.007 46.7814 43.2582 47.5302C42.5094 48.2803 41.4739 48.745 40.336 48.745H26.6656C26.4531 49.6269 26.1728 50.5536 25.8246 51.5085C25.4112 52.64 24.9018 53.8125 24.2938 54.999C24.7392 55.0592 25.1386 55.2666 25.4419 55.5699C25.6287 55.7556 25.7769 55.9764 25.8779 56.2195C25.979 56.4627 26.0309 56.7235 26.0307 56.9869ZM24.2873 61.993V56.9869C24.2873 56.9152 24.2579 56.8486 24.2093 56.8013C24.1606 56.7526 24.0954 56.7232 24.0237 56.7232L6.85247 56.7603C6.71167 56.8205 6.72191 56.9318 6.72191 56.9869V61.993C6.72191 62.0646 6.75135 62.1312 6.79999 62.1786C6.84863 62.2272 6.91391 62.2566 6.98559 62.2566H24.0224C24.0941 62.2566 24.1606 62.2272 24.208 62.1786C24.2579 62.1299 24.2873 62.0646 24.2873 61.993ZM7.79327 35.2256V4.13696C7.79327 3.47904 8.06335 2.88128 8.49727 2.44736C8.93119 2.01344 9.53023 1.74336 10.1869 1.74336H40.3373C40.9952 1.74336 41.593 2.01344 42.0269 2.44736C42.4608 2.88128 42.7309 3.48032 42.7309 4.13696V13.0995C42.5709 13.1584 42.4122 13.2198 42.2547 13.2851C41.6659 13.5296 41.0989 13.8202 40.5574 14.1542L40.4589 14.0787V4.49408C40.4589 4.0128 40.0685 3.6224 39.5872 3.6224H10.544C10.0627 3.6224 9.67231 4.0128 9.67231 4.49408V33.3914C9.20255 33.5706 8.75967 33.8611 8.39487 34.2694C8.15295 34.5395 7.94815 34.8582 7.79327 35.2256ZM11.4157 33.216V5.36576H38.7168V12.9536C38.4864 12.9472 38.2534 13.033 38.0781 13.2083L35.6819 15.6045L35.6832 15.6058C35.3798 15.9091 35.3389 16.3981 35.6064 16.7488L36.6266 18.0851C36.2917 18.6266 36.001 19.1942 35.7574 19.7824C35.5147 20.3692 35.3191 20.9744 35.1725 21.5923L33.5712 21.8074C33.3492 21.8204 33.1406 21.9177 32.988 22.0796C32.8355 22.2414 32.7506 22.4554 32.7507 22.6778V26.0646H32.7533C32.7533 26.4934 33.0694 26.8672 33.5072 26.9261L35.1725 27.1501C35.3183 27.7682 35.5139 28.3735 35.7574 28.96C36.0019 29.5488 36.2925 30.1158 36.6266 30.6573L35.6409 31.9488C35.3414 32.2906 35.3555 32.8115 35.6806 33.1379L38.0768 35.5341L38.0781 35.5328C38.1616 35.6161 38.2611 35.6817 38.3707 35.7255C38.4803 35.7693 38.5976 35.7904 38.7155 35.7875V43.3779H27.2326C27.248 42.7226 27.257 42.0352 27.2608 41.3773C27.2634 41.3504 27.2646 41.3235 27.2646 41.2966C27.2646 39.5994 26.3942 38.5229 25.2845 38.0429C24.8608 37.8598 24.4026 37.7677 23.9469 37.7664C23.4912 37.7651 23.0381 37.8522 22.6221 38.0262C22.5274 38.0659 22.4339 38.1107 22.343 38.1581C22.3238 37.4221 22.3072 36.8154 22.2918 36.2688C22.2381 34.3104 22.2048 33.1354 22.1933 29.5053C22.608 29.4246 22.9779 29.2211 23.2659 28.9344C23.6422 28.5581 23.8752 28.0384 23.8752 27.4675V22.5382C23.8752 21.9661 23.6422 21.4464 23.2659 21.0714C22.8896 20.695 22.3699 20.4621 21.799 20.4621H16.8698C16.2976 20.4621 15.7779 20.695 15.4029 21.0714C15.0265 21.4477 14.7936 21.9674 14.7936 22.5382V27.4675C14.7936 28.0397 15.0265 28.5594 15.4029 28.9344C15.6192 29.1507 15.8816 29.3197 16.176 29.4234L16.1158 31.9616C16.0685 31.9398 16.0198 31.9194 15.9699 31.8989C15.5518 31.7327 15.1016 31.6632 14.6528 31.6954C14.2073 31.7261 13.7645 31.8541 13.3651 32.0781C12.8416 32.3699 12.3923 32.8179 12.1069 33.417C11.9686 33.3581 11.824 33.3107 11.6781 33.2723C11.591 33.2493 11.504 33.2301 11.4157 33.216ZM16.5357 24.4557V22.5357C16.5357 22.4448 16.5741 22.3616 16.6342 22.3014C16.6957 22.24 16.7789 22.2029 16.8685 22.2029H21.7978C21.8886 22.2029 21.9718 22.2413 22.032 22.3014C22.0934 22.3629 22.1306 22.4461 22.1306 22.5357V25.1098C21.9373 24.0384 21.2653 23.328 20.4371 22.9798C20.0595 22.8211 19.6499 22.743 19.2416 22.7443C18.8345 22.7456 18.4275 22.8275 18.0499 22.9862C17.4073 23.2602 16.8506 23.7504 16.5357 24.4557ZM27.175 45.12C27.1507 45.6333 27.12 46.0736 27.0854 46.3949C27.0637 46.592 27.0381 46.7942 27.0074 46.999H40.3373C40.9952 46.999 41.593 46.729 42.0269 46.295C42.4608 45.8611 42.7309 45.2621 42.7309 44.6054V35.6429C42.5709 35.584 42.4122 35.5226 42.2547 35.4573C41.6659 35.2128 41.0989 34.9222 40.5574 34.5882L40.4589 34.6637V44.2483C40.4589 44.7296 40.0685 45.12 39.5872 45.12H27.175ZM50.7667 14.8915C50.1106 14.6185 49.4276 14.4152 48.729 14.2848C48.5398 14.2596 48.3641 14.1729 48.2291 14.038C48.094 13.9032 48.007 13.7277 47.9814 13.5386L47.7779 12.0205H45.9104L45.7056 13.5386H45.7043C45.6798 13.7208 45.5981 13.8905 45.4708 14.0233C45.3436 14.156 45.1775 14.2449 44.9965 14.2771C44.6304 14.3437 44.2707 14.4307 43.9174 14.5357C43.8778 14.551 43.8368 14.5638 43.7946 14.5728C43.4989 14.665 43.207 14.7712 42.9216 14.889C42.262 15.1625 41.6327 15.504 41.0438 15.9078C40.8921 16.0226 40.7071 16.0846 40.5169 16.0843C40.3267 16.0841 40.1418 16.0217 39.9904 15.9066L39.1072 15.232C39.0739 15.2102 39.0432 15.1859 39.0138 15.1603L38.7718 14.976L37.4509 16.297L38.3802 17.5155C38.6029 17.8061 38.6234 18.2195 38.4045 18.537C37.9949 19.1283 37.6454 19.7683 37.3638 20.4467C37.0908 21.1023 36.8879 21.7849 36.7584 22.4832C36.7332 22.6724 36.6465 22.848 36.5116 22.9831C36.3768 23.1182 36.2013 23.2052 36.0122 23.2307L34.4941 23.4355V25.303L36.0122 25.5078V25.5091C36.3757 25.5578 36.6829 25.8355 36.7507 26.217C36.88 26.929 37.0856 27.6251 37.3638 28.2931C37.6374 28.9527 37.9788 29.582 38.3827 30.1709C38.4975 30.3226 38.5594 30.5076 38.5592 30.6978C38.559 30.888 38.4965 31.0729 38.3814 31.2243L37.4509 32.4429L38.7706 33.7638L39.0125 33.5795C39.0419 33.5539 39.0739 33.5296 39.1072 33.5078L39.9904 32.8346C40.281 32.6118 40.6944 32.5914 41.0118 32.8102C41.8655 33.4006 42.8037 33.8581 43.7946 34.167C43.8368 34.176 43.879 34.1888 43.9187 34.2054C44.2605 34.3078 44.6074 34.391 44.9594 34.4563C45.1485 34.4815 45.3242 34.5683 45.4592 34.7031C45.5943 34.8379 45.6813 35.0134 45.7069 35.2026L45.9117 36.7206H47.7792L47.9827 35.2026H47.984C48.0085 35.0203 48.0902 34.8506 48.2175 34.7178C48.3447 34.5851 48.5108 34.4962 48.6918 34.464C49.4039 34.3347 50.0999 34.1291 50.768 33.8509C51.4278 33.5779 52.0572 33.2364 52.6458 32.832C52.7974 32.7173 52.9825 32.6553 53.1727 32.6555C53.3629 32.6557 53.5478 32.7182 53.6992 32.8333L54.9178 33.7638L56.2387 32.4429L55.3094 31.2243C55.1982 31.0784 55.1359 30.901 55.1315 30.7175C55.1271 30.5341 55.1809 30.3539 55.2851 30.2029C55.6947 29.6115 56.0442 28.9715 56.3258 28.2931C56.5971 27.6403 56.8019 26.9581 56.9312 26.2566C56.9564 26.0675 57.0431 25.8918 57.178 25.7567C57.3128 25.6217 57.4883 25.5347 57.6774 25.5091L59.1955 25.3043V23.4368L57.6774 23.232V23.2307C57.4952 23.2062 57.3255 23.1245 57.1927 22.9973C57.06 22.87 56.9711 22.7039 56.9389 22.5229C56.8096 21.8108 56.604 21.1148 56.3258 20.4467C56.0527 19.7869 55.7112 19.1575 55.3069 18.569C55.1921 18.4173 55.1301 18.2322 55.1304 18.042C55.1306 17.8518 55.193 17.6669 55.3082 17.5155L56.2374 16.297L54.9178 14.976L53.6992 15.9066C53.5533 16.0178 53.3759 16.0801 53.1924 16.0845C53.009 16.0889 52.8288 16.0351 52.6778 15.9309C52.0787 15.5187 51.4382 15.1704 50.7667 14.8915ZM46.8448 16.4326C45.5366 16.4326 44.304 16.7488 43.216 17.3094C42.4835 17.6866 41.8142 18.1754 41.232 18.7584C39.7946 20.1946 38.9062 22.1798 38.9062 24.3712C38.9062 26.5638 39.7946 28.5478 41.232 29.984C41.8042 30.5562 42.4634 31.0413 43.1866 31.4176C43.1955 31.4227 43.2058 31.4278 43.2147 31.433C44.3027 31.9936 45.5366 32.3098 46.8448 32.3098C49.0374 32.3098 51.0214 31.4214 52.4576 29.984C53.8938 28.5478 54.7834 26.5626 54.7834 24.3712C54.7834 22.1798 53.895 20.1946 52.4576 18.7584C51.0214 17.321 49.0362 16.4326 46.8448 16.4326ZM51.225 19.991C50.1037 18.8698 48.5549 18.176 46.8448 18.176C46.0051 18.176 45.2051 18.3437 44.4742 18.6458V30.0966C45.2038 30.3987 46.0051 30.5664 46.8448 30.5664C48.5562 30.5664 50.1049 29.8726 51.225 28.7514C52.3462 27.6301 53.04 26.0813 53.04 24.3699C53.04 22.6586 52.3462 21.111 51.225 19.991ZM42.7309 19.7389C42.6387 19.8208 42.5504 19.904 42.4634 19.991C41.3421 21.1123 40.6483 22.6611 40.6483 24.3712C40.6483 26.0826 41.3421 27.6314 42.4634 28.7526C42.5504 28.8397 42.6387 28.9229 42.7309 29.0048V19.7389ZM16.5357 9.99296V14.9222C16.5357 15.0131 16.5741 15.0963 16.6342 15.1565C16.6957 15.2179 16.7789 15.255 16.8685 15.255H21.7978C21.8886 15.255 21.9718 15.2166 22.032 15.1565C22.0934 15.095 22.1306 15.0118 22.1306 14.9222V9.99296C22.1306 9.90208 22.0922 9.81888 22.032 9.75872C21.9706 9.69728 21.8874 9.66016 21.7978 9.66016H16.8685C16.7776 9.66016 16.6944 9.69856 16.6342 9.75872C16.5741 9.81888 16.5357 9.90208 16.5357 9.99296ZM14.7936 14.9222C14.7936 15.4944 15.0265 16.0141 15.4029 16.3891C15.7792 16.7654 16.2989 16.9984 16.8698 16.9984H21.799C22.3712 16.9984 22.8909 16.7654 23.2659 16.3891C23.6422 16.0128 23.8752 15.4944 23.8752 14.9222V9.99296C23.8752 9.4208 23.6422 8.90112 23.2659 8.52608C22.8896 8.14976 22.3699 7.9168 21.799 7.9168H16.8698C16.2976 7.9168 15.7779 8.14976 15.4029 8.52608C15.0265 8.9024 14.7936 9.4208 14.7936 9.99296V14.9222ZM27.5232 11.52H35.3734C35.8547 11.52 36.2451 11.1296 36.2451 10.6483C36.2451 10.167 35.8547 9.77664 35.3734 9.77664H27.5232C27.0419 9.77664 26.6515 10.167 26.6515 10.6483C26.6515 11.1296 27.0419 11.52 27.5232 11.52ZM27.5232 27.9872H30.416C30.8973 27.9872 31.2877 27.5968 31.2877 27.1155C31.2877 26.6342 30.8973 26.2438 30.416 26.2438H27.5232C27.0419 26.2438 26.6515 26.6342 26.6515 27.1155C26.6515 27.5968 27.0419 27.9872 27.5232 27.9872ZM27.5232 22.4986H30.416C30.8973 22.4986 31.2877 22.1082 31.2877 21.6269C31.2877 21.1456 30.8973 20.7552 30.416 20.7552H27.5232C27.0419 20.7552 26.6515 21.1456 26.6515 21.6269C26.6515 22.1082 27.0419 22.4986 27.5232 22.4986ZM27.5232 17.0099H31.5373C32.0186 17.0099 32.409 16.6195 32.409 16.1382C32.409 15.657 32.0186 15.2666 31.5373 15.2666H27.5232C27.0419 15.2666 26.6515 15.657 26.6515 16.1382C26.6515 16.6195 27.0419 17.0099 27.5232 17.0099Z" fill="#1A1919"/>
</svg>
