<svg width="270" height="73" viewBox="0 0 270 73" fill="none" xmlns="http://www.w3.org/2000/svg">
<g clip-path="url(#clip0_2466_298)">
<path d="M74.1412 49.2156V58.1776H78.485V59.4651H72.8027V49.2156H74.1412ZM86.5979 56.3886H80.5707C80.8171 57.6927 81.8107 58.4535 83.1738 58.4535C84.1263 58.4535 84.8161 58.1024 85.243 57.3834L86.3105 58.0021C85.6044 59.0972 84.5533 59.6574 83.1491 59.6574C82.016 59.6574 81.0799 59.2895 80.3572 58.5705C79.6511 57.8349 79.2898 56.9153 79.2898 55.8034C79.2898 54.6915 79.6346 53.7802 80.3408 53.0529C81.047 52.3172 81.9503 51.9577 83.0588 51.9577C84.1099 51.9577 84.9721 52.3423 85.6372 53.1031C86.3105 53.8471 86.6472 54.7584 86.6472 55.8284C86.6472 56.0207 86.6308 56.213 86.6061 56.3969L86.5979 56.3886ZM83.0588 53.1532C81.7203 53.1532 80.7842 53.9892 80.5707 55.2767H85.3744C85.1609 53.8889 84.2084 53.1532 83.0588 53.1532ZM94.0211 53.404V52.1417H95.2692V59.4651H94.0211V58.2027C93.4052 59.1725 92.4937 59.649 91.3031 59.649C90.2931 59.649 89.4309 59.2811 88.7247 58.5371C88.0185 57.7931 87.6572 56.8651 87.6572 55.795C87.6572 54.7249 88.0185 53.822 88.7247 53.0696C89.4309 52.3256 90.2931 51.941 91.3031 51.941C92.4937 51.941 93.4052 52.4259 94.0211 53.3873V53.404ZM91.4591 58.4284C92.1899 58.4284 92.7976 58.1776 93.282 57.6844C93.7747 57.1744 94.0129 56.5558 94.0129 55.8117C94.0129 55.0677 93.7665 54.449 93.282 53.9558C92.7893 53.4458 92.1899 53.195 91.4591 53.195C90.7283 53.195 90.1371 53.4458 89.6444 53.9558C89.1517 54.4574 88.9136 55.0677 88.9136 55.8117C88.9136 56.5558 89.1599 57.1744 89.6444 57.6844C90.1371 58.186 90.7365 58.4284 91.4591 58.4284ZM103.119 53.404V49.2156H104.367V59.4651H103.119V58.2027C102.503 59.1725 101.592 59.649 100.401 59.649C99.3913 59.649 98.5291 59.2811 97.823 58.5371C97.1168 57.7931 96.7555 56.8651 96.7555 55.795C96.7555 54.7249 97.1168 53.822 97.823 53.0696C98.5291 52.3256 99.3913 51.941 100.401 51.941C101.592 51.941 102.503 52.4259 103.119 53.3873V53.404ZM100.557 58.4284C101.288 58.4284 101.896 58.1776 102.38 57.6844C102.873 57.1744 103.111 56.5558 103.111 55.8117C103.111 55.0677 102.865 54.449 102.38 53.9558C101.888 53.4458 101.288 53.195 100.557 53.195C99.8265 53.195 99.2353 53.4458 98.7426 53.9558C98.25 54.4574 98.0118 55.0677 98.0118 55.8117C98.0118 56.5558 98.2582 57.1744 98.7426 57.6844C99.2353 58.186 99.8348 58.4284 100.557 58.4284ZM106.897 51.2388C106.42 51.2388 106.051 50.8542 106.051 50.386C106.051 49.9179 106.429 49.525 106.897 49.525C107.365 49.525 107.734 49.9179 107.734 50.386C107.734 50.8542 107.356 51.2388 106.897 51.2388ZM107.512 59.4651H106.264V52.1417H107.512V59.4651ZM113.006 51.9494C114.689 51.9494 115.798 53.1031 115.798 54.9674V59.4651H114.55V55.0426C114.55 53.8555 113.876 53.1699 112.768 53.1699C111.52 53.1699 110.682 53.9474 110.682 55.586V59.4651H109.434V52.1417H110.682V53.195C111.183 52.359 111.963 51.9494 113.014 51.9494H113.006ZM123.508 53.3957V52.1333H124.748V59.1474C124.748 60.2342 124.387 61.0618 123.673 61.6638C122.95 62.2657 122.088 62.575 121.086 62.575C119.477 62.575 118.269 61.948 117.678 60.786L118.77 60.159C119.156 60.9782 119.953 61.3879 121.119 61.3879C122.613 61.3879 123.525 60.5352 123.525 59.1474V58.1107C122.892 59.0889 121.989 59.5738 120.823 59.5738C119.805 59.5738 118.926 59.2059 118.22 58.4619C117.514 57.7178 117.153 56.8233 117.153 55.7532C117.153 54.6831 117.514 53.7886 118.22 53.0613C118.926 52.3172 119.805 51.9494 120.823 51.9494C122.006 51.9494 122.909 52.4343 123.525 53.3957H123.508ZM123.508 55.7532C123.508 55.0175 123.262 54.4072 122.777 53.9056C122.293 53.404 121.685 53.1616 120.955 53.1616C120.224 53.1616 119.616 53.4124 119.132 53.9056C118.647 54.3989 118.401 55.0175 118.401 55.7532C118.401 56.4889 118.647 57.1159 119.132 57.6091C119.616 58.1024 120.224 58.3532 120.955 58.3532C121.685 58.3532 122.293 58.1024 122.777 57.6091C123.262 57.1159 123.508 56.4973 123.508 55.7532ZM135.095 59.649C133.567 59.649 132.303 59.139 131.309 58.1107C130.316 57.0825 129.831 55.8284 129.831 54.332C129.831 52.8355 130.324 51.5815 131.309 50.5532C132.303 49.525 133.567 49.015 135.095 49.015C136.934 49.015 138.576 49.9848 139.438 51.5063L138.272 52.1918C137.698 51.0632 136.474 50.3359 135.095 50.3359C133.929 50.3359 132.984 50.7205 132.245 51.4812C131.514 52.242 131.153 53.195 131.153 54.3404C131.153 55.4857 131.514 56.422 132.245 57.1828C132.976 57.9435 133.929 58.3281 135.095 58.3281C136.474 58.3281 137.698 57.5924 138.272 56.4805L139.438 57.1577C139.02 57.9185 138.42 58.5371 137.64 58.9885C136.86 59.44 136.014 59.6657 135.095 59.6657V59.649ZM145.827 56.0207V52.1417H147.075V59.4651H145.827V58.4117C145.326 59.2477 144.546 59.6574 143.495 59.6574C141.812 59.6574 140.703 58.5037 140.703 56.6394V52.1417H141.951V56.5641C141.951 57.7513 142.625 58.4368 143.733 58.4368C144.981 58.4368 145.819 57.6593 145.819 56.0207H145.827ZM150.048 54.1146C150.048 54.6831 150.68 54.9924 151.468 55.2098C152.593 55.4606 154.088 55.887 154.071 57.4503C154.071 58.1107 153.808 58.6541 153.308 59.0471C152.807 59.44 152.174 59.649 151.378 59.649C149.982 59.649 148.931 58.9718 148.512 57.9352L149.588 57.3082C149.818 58.0104 150.491 58.4535 151.37 58.4535C152.191 58.4535 152.79 58.1442 152.79 57.4587C152.79 56.8902 152.158 56.5641 151.37 56.3718C150.237 56.0625 148.767 55.6863 148.767 54.1314C148.767 53.5043 149.013 52.9777 149.489 52.568C149.982 52.1584 150.581 51.9494 151.312 51.9494C152.478 51.9494 153.439 52.5179 153.899 53.4709L152.848 54.0728C152.585 53.4458 152.068 53.1365 151.312 53.1365C150.606 53.1365 150.031 53.4876 150.031 54.1146H150.048ZM159.187 52.1417V53.3706H157.274V57.3416C157.274 58.4702 157.906 58.3783 159.187 58.3197V59.4651C157.003 59.7577 156.026 59.1557 156.026 57.3416V53.3706H154.605V52.1417H156.026V50.4696L157.274 50.0851V52.1333H159.187V52.1417ZM166.783 58.5371C166.052 59.2811 165.14 59.649 164.089 59.649C163.038 59.649 162.135 59.2811 161.396 58.5371C160.657 57.7931 160.304 56.8818 160.304 55.795C160.304 54.7082 160.665 53.8053 161.396 53.0529C162.127 52.3005 163.038 51.941 164.089 51.941C165.14 51.941 166.044 52.3089 166.783 53.0529C167.522 53.7969 167.891 54.7082 167.891 55.795C167.891 56.8818 167.513 57.7847 166.783 58.5371ZM164.089 58.4033C164.812 58.4033 165.411 58.1525 165.904 57.6593C166.397 57.1661 166.635 56.5474 166.635 55.8034C166.635 55.0593 166.388 54.4407 165.904 53.9474C165.419 53.4542 164.812 53.2034 164.089 53.2034C163.367 53.2034 162.784 53.4542 162.291 53.9474C161.798 54.4407 161.56 55.0593 161.56 55.8034C161.56 56.5474 161.806 57.1661 162.291 57.6593C162.775 58.1525 163.383 58.4033 164.089 58.4033ZM177.129 51.9494C178.738 51.9494 179.83 53.0947 179.83 54.9088V59.4651H178.582V54.959C178.582 53.8304 177.967 53.1699 176.998 53.1699C175.922 53.1699 175.232 53.8889 175.232 55.3937V59.4651H173.984V54.959C173.984 53.8304 173.393 53.1699 172.457 53.1699C171.406 53.1699 170.617 53.914 170.617 55.3937V59.4651H169.369V52.1417H170.617V53.1198C171.11 52.3423 171.824 51.9494 172.76 51.9494C173.697 51.9494 174.427 52.359 174.871 53.195C175.372 52.359 176.119 51.9494 177.129 51.9494ZM188.469 56.3886H182.442C182.688 57.6927 183.682 58.4535 185.045 58.4535C185.997 58.4535 186.687 58.1024 187.114 57.3834L188.182 58.0021C187.475 59.0972 186.424 59.6574 185.02 59.6574C183.887 59.6574 182.951 59.2895 182.228 58.5705C181.522 57.8349 181.161 56.9153 181.161 55.8034C181.161 54.6915 181.506 53.7802 182.212 53.0529C182.918 52.3172 183.821 51.9577 184.93 51.9577C185.981 51.9577 186.843 52.3423 187.508 53.1031C188.182 53.8471 188.518 54.7584 188.518 55.8284C188.518 56.0207 188.502 56.213 188.477 56.3969L188.469 56.3886ZM184.93 53.1532C183.591 53.1532 182.655 53.9892 182.442 55.2767H187.245C187.032 53.8889 186.079 53.1532 184.93 53.1532ZM191.203 52.1417V53.3706C191.622 52.4593 192.369 52.0079 193.445 52.0079V53.3371C192.829 53.3037 192.312 53.4709 191.86 53.8388C191.417 54.2066 191.195 54.7751 191.195 55.5776V59.4567H189.947V52.1333H191.195L191.203 52.1417ZM199.735 54.9256V58.1776H204.407V59.4651H198.397V49.2156H204.333V50.5031H199.727V53.6548H203.972V54.9256H199.727H199.735ZM209.392 55.6863L212.142 59.4651H210.673L208.661 56.6979L206.633 59.4651H205.163L207.922 55.703L205.319 52.1417H206.797L208.653 54.6915L210.508 52.1417H211.978L209.392 55.6863ZM217.266 51.9494C218.276 51.9494 219.139 52.3339 219.845 53.078C220.551 53.822 220.912 54.7333 220.912 55.8034C220.912 56.8735 220.551 57.7931 219.845 58.5455C219.139 59.2895 218.276 59.6574 217.266 59.6574C216.076 59.6574 215.164 59.1725 214.548 58.2111V62.3994H213.3V52.15H214.548V53.4124C215.164 52.4426 216.076 51.9661 217.266 51.9661V51.9494ZM217.11 58.4201C217.833 58.4201 218.432 58.1693 218.925 57.676C219.418 57.1661 219.656 56.5474 219.656 55.8034C219.656 55.0593 219.41 54.4407 218.925 53.9474C218.432 53.4375 217.833 53.1867 217.11 53.1867C216.388 53.1867 215.772 53.4375 215.287 53.9474C214.795 54.449 214.557 55.0593 214.557 55.8034C214.557 56.5474 214.803 57.1661 215.287 57.676C215.78 58.1776 216.38 58.4201 217.11 58.4201ZM229.304 56.3886H223.277C223.524 57.6927 224.517 58.4535 225.88 58.4535C226.833 58.4535 227.522 58.1024 227.949 57.3834L229.017 58.0021C228.311 59.0972 227.26 59.6574 225.856 59.6574C224.722 59.6574 223.786 59.2895 223.064 58.5705C222.357 57.8349 221.996 56.9153 221.996 55.8034C221.996 54.6915 222.341 53.7802 223.047 53.0529C223.753 52.3172 224.657 51.9577 225.765 51.9577C226.816 51.9577 227.678 52.3423 228.344 53.1031C229.017 53.8471 229.354 54.7584 229.354 55.8284C229.354 56.0207 229.337 56.213 229.313 56.3969L229.304 56.3886ZM225.765 53.1532C224.427 53.1532 223.491 53.9892 223.277 55.2767H228.081C227.867 53.8889 226.915 53.1532 225.765 53.1532ZM232.039 52.1417V53.3706C232.458 52.4593 233.205 52.0079 234.28 52.0079V53.3371C233.665 53.3037 233.147 53.4709 232.696 53.8388C232.252 54.2066 232.031 54.7751 232.031 55.5776V59.4567H230.782V52.1333H232.031L232.039 52.1417ZM236.136 51.2304C235.66 51.2304 235.29 50.8458 235.29 50.3777C235.29 49.9095 235.668 49.5166 236.136 49.5166C236.604 49.5166 236.974 49.9095 236.974 50.3777C236.974 50.8458 236.596 51.2304 236.136 51.2304ZM236.752 59.4567H235.504V52.1333H236.752V59.4567ZM245.563 56.3802H239.536C239.782 57.6844 240.776 58.4451 242.139 58.4451C243.091 58.4451 243.781 58.094 244.208 57.3751L245.276 57.9937C244.569 59.0889 243.518 59.649 242.114 59.649C240.981 59.649 240.045 59.2811 239.322 58.5622C238.616 57.8265 238.255 56.9069 238.255 55.795C238.255 54.6831 238.6 53.7719 239.306 53.0445C240.012 52.3089 240.915 51.9494 242.024 51.9494C243.075 51.9494 243.937 52.3339 244.602 53.0947C245.276 53.8387 245.612 54.75 245.612 55.8201C245.612 56.0124 245.596 56.2046 245.571 56.3886L245.563 56.3802ZM242.024 53.1449C240.685 53.1449 239.749 53.9809 239.536 55.2683H244.339C244.126 53.8806 243.173 53.1449 242.024 53.1449ZM250.621 51.941C252.305 51.941 253.413 53.0947 253.413 54.959V59.4567H252.165V55.0342C252.165 53.8471 251.492 53.1616 250.383 53.1616C249.135 53.1616 248.297 53.9391 248.297 55.5776V59.4567H247.049V52.1333H248.297V53.1867C248.798 52.3507 249.578 51.941 250.629 51.941H250.621ZM258.537 59.6406C257.461 59.6406 256.55 59.2728 255.835 58.5455C255.113 57.8014 254.76 56.8902 254.76 55.795C254.76 54.6998 255.121 53.7886 255.835 53.0529C256.558 52.3089 257.461 51.941 258.537 51.941C259.958 51.941 261.156 52.6851 261.715 53.8555L260.664 54.4741C260.303 53.6966 259.498 53.1867 258.537 53.1867C257.814 53.1867 257.215 53.4375 256.722 53.9307C256.246 54.4323 256 55.0426 256 55.7866C256 56.5307 256.246 57.1326 256.722 57.6342C257.215 58.1358 257.814 58.3783 258.537 58.3783C259.498 58.3783 260.302 57.8767 260.705 57.1075L261.772 57.7345C261.156 58.8882 259.933 59.6406 258.537 59.6406ZM269.926 56.3718H263.899C264.145 57.676 265.139 58.4368 266.502 58.4368C267.455 58.4368 268.144 58.0857 268.571 57.3667L269.639 57.9853C268.933 59.0805 267.882 59.6406 266.477 59.6406C265.344 59.6406 264.408 59.2728 263.686 58.5538C262.979 57.8181 262.618 56.8985 262.618 55.7866C262.618 54.6748 262.963 53.7635 263.669 53.0362C264.375 52.3089 265.279 51.941 266.387 51.941C267.438 51.941 268.3 52.3256 268.966 53.0863C269.639 53.8304 269.976 54.7416 269.976 55.8117C269.976 56.004 269.959 56.1963 269.935 56.3802L269.926 56.3718ZM266.387 53.1365C265.049 53.1365 264.113 53.9725 263.899 55.26H268.703C268.489 53.8722 267.537 53.1365 266.387 53.1365Z" fill="#A9A8A9"/>
<path d="M0 15.0063V16.2687V22.0538V23.3246L29.0602 7.95877V6.68804V1.27073V0L0 15.0063Z" fill="url(#paint0_linear_2466_298)"/>
<path d="M29.0601 0V1.27073V6.68804V7.95877L59.352 23.3246V22.0538V16.2687V15.0063L29.0601 0Z" fill="url(#paint1_linear_2466_298)"/>
<path d="M29.6763 32.3952L36.656 36.5L52.3727 27.3039V59.7075L59.3442 55.6027V15.0063L29.6763 32.3952Z" fill="url(#paint2_linear_2466_298)"/>
<path d="M29.6761 32.3952L22.6964 36.5L6.9715 27.3039V59.7075L0 55.6111V15.0063L29.6679 32.3952H29.6761Z" fill="url(#paint3_linear_2466_298)"/>
<path d="M29.6759 32.3952L46.9445 42.5443L39.973 46.6491L29.6759 40.5964L19.3787 46.6491V58.7545L29.6759 64.8071L46.9445 54.658V62.8592L29.6759 73.0084L12.4072 62.8592V42.561L29.6759 32.4119V32.3952Z" fill="url(#paint4_linear_2466_298)"/>
<path d="M93.0355 16.8037C91.0073 15.5915 88.7245 14.9729 86.2447 14.9729C83.7648 14.9729 81.4081 15.5915 79.3635 16.8204C77.3271 18.0494 75.7012 19.7464 74.5352 21.8699C73.3774 23.9934 72.7861 26.3509 72.7861 28.8923C72.7861 31.4338 73.3774 33.7412 74.5434 35.8312C75.7094 37.9212 77.3271 39.5932 79.3471 40.8054C81.3753 42.0176 83.6581 42.6363 86.1297 42.6363C88.6013 42.6363 90.9662 42.0176 93.0109 40.7887C95.0473 39.5681 96.6732 37.8627 97.8392 35.7392C99.0052 33.6158 99.5882 31.2499 99.5882 28.7168C99.5882 26.1837 98.997 23.868 97.831 21.7779C96.665 19.6879 95.0473 18.0159 93.0273 16.8037H93.0355ZM95.4168 28.9007C95.4168 30.673 95.0145 32.3283 94.2262 33.7997C93.4379 35.2711 92.3293 36.4582 90.9416 37.3276C89.5621 38.1971 87.9855 38.6318 86.2447 38.6318C84.5038 38.6318 82.8533 38.1887 81.4656 37.3109C80.0615 36.4248 78.9529 35.2209 78.1646 33.7161C77.3681 32.2029 76.9658 30.5226 76.9658 28.7168C76.9658 26.911 77.3599 25.2808 78.14 23.7927C78.9201 22.313 80.0122 21.1175 81.3999 20.248C82.7794 19.3786 84.3725 18.9439 86.1297 18.9439C87.887 18.9439 89.4882 19.3953 90.8923 20.2815C92.3047 21.176 93.4215 22.3966 94.2098 23.9181C95.0063 25.448 95.4086 27.12 95.4086 28.9007H95.4168Z" fill="url(#paint5_linear_2466_298)"/>
<path d="M127.014 16.3355C125.955 17.0545 125.15 18.0326 124.617 19.2281L117.44 34.2177L110.148 19.1362C109.647 17.9825 108.851 17.0294 107.791 16.3105C106.724 15.5999 105.541 15.232 104.277 15.232H103.562V42.3771H104.277C105.197 42.3771 105.985 42.0427 106.625 41.3906C107.266 40.7385 107.594 39.9276 107.594 38.9997V22.9233L116.808 41.9675L117.456 43.3051L118.097 41.9591L127.269 22.7393V38.9997C127.269 39.9276 127.597 40.7385 128.238 41.3906C128.878 42.0427 129.675 42.3771 130.586 42.3771H131.301V15.232H130.586C129.289 15.232 128.098 15.5999 127.031 16.3272L127.014 16.3355Z" fill="url(#paint6_linear_2466_298)"/>
<path d="M153.964 15.232H153.25V35.1122L141.458 18.0744C140.834 17.1966 140.046 16.4944 139.093 15.9928C138.141 15.4828 137.114 15.232 136.039 15.232H135.324V38.9997C135.324 39.9276 135.653 40.7385 136.293 41.3906C136.942 42.0427 137.73 42.3771 138.642 42.3771H139.356V22.0622L151.55 39.7186C152.117 40.5463 152.864 41.2067 153.759 41.6749C154.654 42.143 155.615 42.3771 156.616 42.3771H157.331V18.6095C157.331 17.6731 156.994 16.8706 156.337 16.2101C155.68 15.5581 154.892 15.232 153.981 15.232H153.964Z" fill="url(#paint7_linear_2466_298)"/>
<path d="M164.573 15.232H161.946H161.223V15.9677V41.6498V42.3771H161.946H164.573H165.296V41.6498V15.9677V15.232H164.573Z" fill="url(#paint8_linear_2466_298)"/>
<path d="M194.964 31.7766L194.266 31.5174L194.036 32.2364C193.519 33.8415 192.616 35.3296 191.351 36.6839C190.152 37.963 188.313 38.6067 185.882 38.6067C184.141 38.6067 182.565 38.1804 181.185 37.336C179.798 36.4916 178.697 35.3045 177.909 33.8164C177.112 32.3116 176.718 30.6062 176.718 28.7252C176.718 26.8441 177.137 25.1554 177.958 23.684C178.779 22.2127 179.896 21.0506 181.284 20.223C182.672 19.4037 184.207 18.9857 185.849 18.9857C187.664 18.9857 189.175 19.3953 190.333 20.1979C191.524 21.0255 192.468 22.0371 193.125 23.2075C193.453 23.776 193.888 24.2358 194.422 24.5702C194.964 24.913 195.555 25.0802 196.163 25.0802C196.565 25.0802 196.968 25.0049 197.362 24.8461L197.395 24.8294L197.428 24.8126L197.501 24.7792L198.011 24.52L197.879 23.9599C197.543 22.5471 196.877 21.1426 195.884 19.7799C194.89 18.4172 193.535 17.2552 191.86 16.3356C190.177 15.4159 188.173 14.9478 185.923 14.9478C183.526 14.9478 181.267 15.5497 179.215 16.7368C177.162 17.924 175.511 19.596 174.312 21.7111C173.114 23.8178 172.506 26.2422 172.506 28.9091C172.506 31.5759 173.105 33.9418 174.28 36.0151C175.462 38.0884 177.08 39.7353 179.091 40.8974C181.103 42.0594 183.353 42.6446 185.776 42.6446C188.198 42.6446 190.218 42.1598 191.934 41.19C193.634 40.2369 194.989 39.0498 195.958 37.6704C196.918 36.3077 197.592 34.9534 197.978 33.6325L198.167 32.9721L197.534 32.738L194.972 31.7849L194.964 31.7766Z" fill="url(#paint9_linear_2466_298)"/>
<path d="M213.021 15.6751L212.381 14.3542L211.74 15.6751L199.185 41.3572L198.667 42.4106H203.159L203.356 42.0009L212.348 23.5252L216.421 31.9103H212.594C211.543 31.9438 210.697 32.2364 210.073 32.7881C209.498 33.2897 209.055 33.8415 208.751 34.4351L208.587 34.8113L208.135 35.8396H218.359L221.372 42.0093L221.569 42.4189H226.061L225.544 41.3655L213.021 15.6835V15.6751Z" fill="url(#paint10_linear_2466_298)"/>
<path d="M242.262 31.2917C243.896 30.9071 245.3 30.1464 246.442 29.0261C247.879 27.6133 248.61 25.7323 248.61 23.4332C248.61 21.9368 248.256 20.5574 247.559 19.3201C246.852 18.0744 245.76 17.0629 244.315 16.3272C242.894 15.6082 241.121 15.2404 239.051 15.2404H229.6V42.3855H233.673V19.2365H238.871C240.907 19.2365 242.377 19.6545 243.231 20.4738C244.085 21.2931 244.504 22.2963 244.504 23.5419C244.504 24.7876 244.052 25.8242 243.124 26.7187C242.196 27.6133 240.751 28.0647 238.838 28.0647H238.444C237.935 28.0647 237.483 28.257 237.146 28.6248C236.818 28.976 236.646 29.419 236.646 29.8956C236.646 30.2801 236.769 30.6312 237.007 30.9573L237.656 31.8351L243.1 39.4344C243.765 40.354 244.602 41.0813 245.588 41.5996C246.573 42.118 247.657 42.3771 248.798 42.3771H250.211L249.381 41.2151L242.27 31.2917H242.262Z" fill="url(#paint11_linear_2466_298)"/>
<path d="M269.286 38.4145H256.722V30.5811H264.014C264.884 30.5811 265.632 30.2634 266.239 29.628C266.839 29.001 267.142 28.2319 267.142 27.3541V26.6268H256.714V19.2031H269.885V15.2404H252.641V42.3855H269.992V38.4228H269.277L269.286 38.4145Z" fill="url(#paint12_linear_2466_298)"/>
</g>
<defs>
<linearGradient id="paint0_linear_2466_298" x1="0.024634" y1="18.5593" x2="24.9889" y2="7.1067" gradientUnits="userSpaceOnUse">
<stop stop-color="#EF3E23"/>
<stop offset="1" stop-color="#F7901E"/>
</linearGradient>
<linearGradient id="paint1_linear_2466_298" x1="25.7755" y1="1.19549" x2="50.0904" y2="14.2875" gradientUnits="userSpaceOnUse">
<stop stop-color="#EF3E23"/>
<stop offset="1" stop-color="#F7901E"/>
</linearGradient>
<linearGradient id="paint2_linear_2466_298" x1="62.5466" y1="8.73626" x2="44.4224" y2="42.9301" gradientUnits="userSpaceOnUse">
<stop stop-color="#EF3E23"/>
<stop offset="1" stop-color="#F7901E"/>
</linearGradient>
<linearGradient id="paint3_linear_2466_298" x1="14.8381" y1="61.9062" x2="14.8381" y2="27.4126" gradientUnits="userSpaceOnUse">
<stop stop-color="#EF3E23"/>
<stop offset="1" stop-color="#F7901E"/>
</linearGradient>
<linearGradient id="paint4_linear_2466_298" x1="29.6759" y1="74.8894" x2="29.6759" y2="41.8337" gradientUnits="userSpaceOnUse">
<stop stop-color="#387EC1"/>
<stop offset="1" stop-color="#37C6F4"/>
</linearGradient>
<linearGradient id="paint5_linear_2466_298" x1="86.1954" y1="42.9289" x2="86.1954" y2="16.2101" gradientUnits="userSpaceOnUse">
<stop stop-color="#EF3E23"/>
<stop offset="1" stop-color="#F7901E"/>
</linearGradient>
<linearGradient id="paint6_linear_2466_298" x1="117.415" y1="42.9289" x2="117.415" y2="16.2101" gradientUnits="userSpaceOnUse">
<stop stop-color="#EF3E23"/>
<stop offset="1" stop-color="#F7901E"/>
</linearGradient>
<linearGradient id="paint7_linear_2466_298" x1="146.319" y1="42.9289" x2="146.319" y2="16.2101" gradientUnits="userSpaceOnUse">
<stop stop-color="#EF3E23"/>
<stop offset="1" stop-color="#F7901E"/>
</linearGradient>
<linearGradient id="paint8_linear_2466_298" x1="163.26" y1="42.9289" x2="163.26" y2="16.2101" gradientUnits="userSpaceOnUse">
<stop stop-color="#EF3E23"/>
<stop offset="1" stop-color="#F7901E"/>
</linearGradient>
<linearGradient id="paint9_linear_2466_298" x1="185.324" y1="42.6363" x2="185.324" y2="18.3336" gradientUnits="userSpaceOnUse">
<stop stop-color="#387EC1"/>
<stop offset="1" stop-color="#37C6F4"/>
</linearGradient>
<linearGradient id="paint10_linear_2466_298" x1="212.356" y1="42.653" x2="212.356" y2="18.342" gradientUnits="userSpaceOnUse">
<stop stop-color="#387EC1"/>
<stop offset="1" stop-color="#37C6F4"/>
</linearGradient>
<linearGradient id="paint11_linear_2466_298" x1="239.905" y1="42.653" x2="239.905" y2="18.342" gradientUnits="userSpaceOnUse">
<stop stop-color="#387EC1"/>
<stop offset="1" stop-color="#37C6F4"/>
</linearGradient>
<linearGradient id="paint12_linear_2466_298" x1="261.329" y1="42.653" x2="261.329" y2="18.342" gradientUnits="userSpaceOnUse">
<stop stop-color="#387EC1"/>
<stop offset="1" stop-color="#37C6F4"/>
</linearGradient>
<clipPath id="clip0_2466_298">
<rect width="270" height="73" fill="white"/>
</clipPath>
</defs>
</svg>
